<?xml version="1.0" encoding="UTF-8"?>
<svg width="24px" height="24px" viewBox="0 0 24 24" version="1.1" xmlns="http://www.w3.org/2000/svg" xmlns:xlink="http://www.w3.org/1999/xlink">
    <!-- Generator: Sketch 53 (72520) - https://sketchapp.com -->
    <title>Aquarius</title>
    <desc>Created with Sketch.</desc>
    <g id="Aquarius" stroke="none" stroke-width="1" fill="none" fill-rule="evenodd">
        <path d="M12,17 C14.209,17 16,15 16,13 L14,13 C14,14 13.103,15 12,15 C10.897,15 10,14.103 10,13 L8,13 C8,15.209 9.791,17 12,17" id="Wave" fill="#000000"></path>
        <path d="M18,17 C20.209,17 22,15 22,13 L20,13 C20,14 19.103,15 18,15 C16.897,15 16,14.103 16,13 L14,13 C14,15.209 15.791,17 18,17" id="Wave" fill="#000000"></path>
        <path d="M6,17 C8.209,17 10,15 10,13 L8,13 C8,14 7.103,15 6,15 C4.897,15 4,14.103 4,13 L2,13 C2,15.209 3.791,17 6,17" id="Wave" fill="#000000"></path>
        <path d="M12,11 C14.209,11 16,9 16,7 L14,7 C14,8 13.103,9 12,9 C10.897,9 10,8.103 10,7 L8,7 C8,9.209 9.791,11 12,11" id="Wave" fill="#000000"></path>
        <path d="M18,11 C20.209,11 22,9 22,7 L20,7 C20,8 19.103,9 18,9 C16.897,9 16,8.103 16,7 L14,7 C14,9.209 15.791,11 18,11" id="Wave" fill="#000000"></path>
        <path d="M6,11 C8.209,11 10,9 10,7 L8,7 C8,8 7.103,9 6,9 C4.897,9 4,8.103 4,7 L2,7 C2,9.209 3.791,11 6,11" id="Wave" fill="#000000"></path>
    </g>
</svg>