<?xml version="1.0" encoding="UTF-8"?>
<svg width="24px" height="24px" viewBox="0 0 24 24" version="1.1" xmlns="http://www.w3.org/2000/svg" xmlns:xlink="http://www.w3.org/1999/xlink">
    <!-- Generator: Sketch 53 (72520) - https://sketchapp.com -->
    <title>Aries</title>
    <desc>Created with Sketch.</desc>
    <g id="Aries" stroke="none" stroke-width="1" fill="none" fill-rule="evenodd">
        <path d="M7,2 C4.239,2 2,4.239 2,7 L4,7 C4,5.343 5.343,4 7,4 C8.657,4 10,5.343 10,7 L12,7 C12,4.239 9.761,2 7,2" id="Horn" fill="#000000"></path>
        <path d="M17,2 C14.239,2 12,4.239 12,7 L14,7 C14,5.343 15.343,4 17,4 C18.657,4 20,5.343 20,7 L22,7 C22,4.239 19.761,2 17,2" id="Horn" fill="#000000"></path>
        <polygon id="Head" fill="#000000" points="13 22 11 22 10 9 14 9"></polygon>
    </g>
</svg>