<?xml version="1.0" encoding="UTF-8"?>
<svg width="24px" height="24px" viewBox="0 0 24 24" version="1.1" xmlns="http://www.w3.org/2000/svg" xmlns:xlink="http://www.w3.org/1999/xlink">
    <!-- Generator: Sketch 53 (72520) - https://sketchapp.com -->
    <title>Cancer</title>
    <desc>Created with Sketch.</desc>
    <g id="Cancer" stroke="none" stroke-width="1" fill="none" fill-rule="evenodd">
        <path d="M18,8 C15.791,8 14,9.791 14,12 C14,14.209 15.791,16 18,16 C20.209,16 22,14.209 22,12 C22,9.791 20.209,8 18,8 M18,10 C19.103,10 20,10.897 20,12 C20,13.103 19.103,14 18,14 C16.897,14 16,13.103 16,12 C16,10.897 16.897,10 18,10" id="Head" fill="#000000"></path>
        <path d="M6,8 C3.791,8 2,9.791 2,12 C2,14.209 3.791,16 6,16 C8.209,16 10,14.209 10,12 C10,9.791 8.209,8 6,8 M6,10 C7.103,10 8,10.897 8,12 C8,13.103 7.103,14 6,14 C4.897,14 4,13.103 4,12 C4,10.897 4.897,10 6,10" id="Head" fill="#000000"></path>
        <path d="M12,4 C14.206,4 16.206,4.897 17.654,6.346 L19.073,4.931 C17.263,3.12 14.763,2 12,2 C6.477,2 2,6.477 2,12 L4,12 C4,7.589 7.589,4 12,4" id="Tail" fill="#000000"></path>
        <path d="M12,20 C9.786,20 7.781,19.095 6.331,17.638 L4.912,19.052 C6.723,20.872 9.229,22 12,22 C17.523,22 22,17.523 22,12 L20,12 C20,16.411 16.411,20 12,20" id="Tail" fill="#000000"></path>
    </g>
</svg>